<svg xmlns="http://www.w3.org/2000/svg" xmlns:xlink="http://www.w3.org/1999/xlink" width="2000" zoomAndPan="magnify" viewBox="0 0 1500 314.250004" height="419" preserveAspectRatio="xMidYMid meet" version="1.0"><defs><g/><clipPath id="3190340b9f"><path d="M 108 0 L 1392 0 L 1392 313.5 L 108 313.5 Z M 108 0 " clip-rule="nonzero"/></clipPath><clipPath id="776a32985d"><rect x="0" width="1284" y="0" height="314"/></clipPath></defs><g clip-path="url(#3190340b9f)"><g transform="matrix(1, 0, 0, 1, 108, -0.000000000000026561)"><g clip-path="url(#776a32985d)"><g fill="#003470" fill-opacity="1"><g transform="translate(0.984563, 250.62665)"><g><path d="M 58.578125 -154.53125 L 58.578125 -98.84375 L 146.953125 -98.84375 L 146.953125 -70.078125 L 58.578125 -70.078125 L 58.578125 0 L 24.578125 0 L 24.578125 -183.046875 L 158.203125 -183.046875 L 158.203125 -154.53125 Z M 58.578125 -154.53125 "/></g></g></g><g fill="#003470" fill-opacity="1"><g transform="translate(167.542296, 250.62665)"><g><path d="M 21.4375 -194.015625 L 54.125 -194.015625 L 54.125 0 L 21.4375 0 Z M 21.4375 -194.015625 "/></g></g></g><g fill="#003470" fill-opacity="1"><g transform="translate(243.107732, 250.62665)"><g><path d="M 84.203125 1.828125 C 70.078125 1.828125 57.347656 -1.21875 46.015625 -7.3125 C 34.691406 -13.414062 25.847656 -21.914062 19.484375 -32.8125 C 13.117188 -43.707031 9.9375 -56.039062 9.9375 -69.8125 C 9.9375 -83.582031 13.117188 -95.867188 19.484375 -106.671875 C 25.847656 -117.484375 34.691406 -125.941406 46.015625 -132.046875 C 57.347656 -138.148438 70.078125 -141.203125 84.203125 -141.203125 C 98.492188 -141.203125 111.300781 -138.148438 122.625 -132.046875 C 133.957031 -125.941406 142.804688 -117.484375 149.171875 -106.671875 C 155.535156 -95.867188 158.71875 -83.582031 158.71875 -69.8125 C 158.71875 -56.039062 155.535156 -43.707031 149.171875 -32.8125 C 142.804688 -21.914062 133.957031 -13.414062 122.625 -7.3125 C 111.300781 -1.21875 98.492188 1.828125 84.203125 1.828125 Z M 84.203125 -26.15625 C 96.222656 -26.15625 106.15625 -30.160156 114 -38.171875 C 121.851562 -46.191406 125.78125 -56.738281 125.78125 -69.8125 C 125.78125 -82.882812 121.851562 -93.429688 114 -101.453125 C 106.15625 -109.472656 96.222656 -113.484375 84.203125 -113.484375 C 72.171875 -113.484375 62.273438 -109.472656 54.515625 -101.453125 C 46.765625 -93.429688 42.890625 -82.882812 42.890625 -69.8125 C 42.890625 -56.738281 46.765625 -46.191406 54.515625 -38.171875 C 62.273438 -30.160156 72.171875 -26.15625 84.203125 -26.15625 Z M 84.203125 -26.15625 "/></g></g></g><g fill="#003470" fill-opacity="1"><g transform="translate(411.757242, 250.62665)"><g><path d="M 239.265625 -139.625 L 187.75 0 L 156.375 0 L 120.28125 -96.21875 L 83.671875 0 L 52.296875 0 L 1.046875 -139.625 L 31.90625 -139.625 L 68.765625 -36.609375 L 107.203125 -139.625 L 134.671875 -139.625 L 172.3125 -36.078125 L 210.234375 -139.625 Z M 239.265625 -139.625 "/></g></g></g><g fill="#00c4cc" fill-opacity="1"><g transform="translate(652.053478, 250.62665)"><g><path d="M 109.296875 2.609375 C 90.816406 2.609375 74.125 -1.441406 59.21875 -9.546875 C 44.320312 -17.648438 32.644531 -28.847656 24.1875 -43.140625 C 15.726562 -57.441406 11.5 -73.566406 11.5 -91.515625 C 11.5 -109.472656 15.769531 -125.597656 24.3125 -139.890625 C 32.851562 -154.179688 44.578125 -165.378906 59.484375 -173.484375 C 74.390625 -181.597656 91.082031 -185.65625 109.5625 -185.65625 C 124.550781 -185.65625 138.234375 -183.039062 150.609375 -177.8125 C 162.992188 -172.582031 173.457031 -165 182 -155.0625 L 160.03125 -134.40625 C 146.78125 -148.695312 130.476562 -155.84375 111.125 -155.84375 C 98.570312 -155.84375 87.328125 -153.097656 77.390625 -147.609375 C 67.460938 -142.117188 59.707031 -134.488281 54.125 -124.71875 C 48.550781 -114.957031 45.765625 -103.890625 45.765625 -91.515625 C 45.765625 -79.140625 48.550781 -68.070312 54.125 -58.3125 C 59.707031 -48.550781 67.460938 -40.921875 77.390625 -35.421875 C 87.328125 -29.929688 98.570312 -27.1875 111.125 -27.1875 C 130.476562 -27.1875 146.78125 -34.421875 160.03125 -48.890625 L 182 -27.984375 C 173.457031 -18.046875 162.953125 -10.460938 150.484375 -5.234375 C 138.015625 -0.00390625 124.285156 2.609375 109.296875 2.609375 Z M 109.296875 2.609375 "/></g></g></g><g fill="#00c4cc" fill-opacity="1"><g transform="translate(842.143712, 250.62665)"><g><path d="M 144.34375 0 L 106.953125 -53.609375 C 105.378906 -53.429688 103.023438 -53.34375 99.890625 -53.34375 L 58.578125 -53.34375 L 58.578125 0 L 24.578125 0 L 24.578125 -183.046875 L 99.890625 -183.046875 C 115.753906 -183.046875 129.566406 -180.425781 141.328125 -175.1875 C 153.097656 -169.957031 162.117188 -162.460938 168.390625 -152.703125 C 174.671875 -142.941406 177.8125 -131.347656 177.8125 -117.921875 C 177.8125 -104.148438 174.453125 -92.296875 167.734375 -82.359375 C 161.023438 -72.429688 151.394531 -65.023438 138.84375 -60.140625 L 180.953125 0 Z M 143.5625 -117.921875 C 143.5625 -129.609375 139.722656 -138.585938 132.046875 -144.859375 C 124.378906 -151.140625 113.132812 -154.28125 98.3125 -154.28125 L 58.578125 -154.28125 L 58.578125 -81.328125 L 98.3125 -81.328125 C 113.132812 -81.328125 124.378906 -84.503906 132.046875 -90.859375 C 139.722656 -97.222656 143.5625 -106.242188 143.5625 -117.921875 Z M 143.5625 -117.921875 "/></g></g></g><g fill="#00c4cc" fill-opacity="1"><g transform="translate(1033.279812, 250.62665)"><g><path d="M 192.71875 0 L 192.453125 -121.328125 L 132.3125 -20.921875 L 117.140625 -20.921875 L 57 -119.765625 L 57 0 L 24.578125 0 L 24.578125 -183.046875 L 52.5625 -183.046875 L 125.25 -61.703125 L 196.640625 -183.046875 L 224.609375 -183.046875 L 224.875 0 Z M 192.71875 0 "/></g></g></g></g></g></g></svg>